<svg width="72" height="71" viewBox="0 0 72 71" fill="none" xmlns="http://www.w3.org/2000/svg">
<path d="M62.1638 24.9476C62.1504 22.7384 61.7527 20.5484 60.9886 18.4756C60.3256 16.727 59.3051 15.1359 57.9924 13.8041C56.6797 12.4722 55.1036 11.4288 53.3648 10.7406C51.3297 9.95975 49.1769 9.52993 46.998 9.4694C44.1932 9.32366 43.3039 9.28222 36.1815 9.23062C29.0592 9.17903 28.1463 9.17242 25.3598 9.31265C23.1813 9.34194 21.0235 9.74053 18.9782 10.4915C17.2294 11.154 15.6381 12.1743 14.3062 13.487C12.9742 14.7998 11.931 16.3761 11.2432 18.1152C10.4609 20.1487 10.032 22.301 9.97498 24.4791C9.82922 27.2869 9.78486 28.1762 9.73327 35.2985C9.68167 42.4208 9.67508 43.3308 9.81821 46.1202C9.84615 48.3021 10.2418 50.4576 10.9941 52.5076C11.6577 54.256 12.6788 55.8466 13.992 57.178C15.3052 58.5094 16.8817 59.5522 18.6207 60.2398C20.6491 61.0513 22.8011 61.5108 24.984 61.5984C27.7918 61.7441 28.681 61.7885 35.8033 61.8401C42.9257 61.8917 43.8386 61.8983 46.6251 61.7552C48.8045 61.728 50.9635 61.3304 53.0096 60.5793C54.7577 59.9155 56.3484 58.8948 57.6801 57.5822C59.0119 56.2696 60.0556 54.6939 60.7446 52.9555C61.5265 50.9195 61.9533 48.77 62.0129 46.5858C62.1586 43.781 62.203 42.8917 62.2546 35.7664C62.3003 28.6441 62.3069 27.7399 62.1638 24.9476ZM35.8763 48.9574C28.4273 48.9034 22.4366 42.8253 22.4905 35.3763C22.5445 27.9273 28.6226 21.9366 36.0716 21.9906C39.6476 22.0165 43.0669 23.4619 45.5772 26.0088C48.0875 28.5558 49.4832 31.9956 49.4573 35.5717C49.4314 39.1477 47.986 42.5669 45.4391 45.0772C42.8921 47.5876 39.4523 48.9833 35.8763 48.9574ZM50.0725 24.7375C49.6595 24.7349 49.2511 24.6509 48.8706 24.4902C48.4901 24.3296 48.145 24.0955 47.8551 23.8014C47.5652 23.5072 47.3361 23.1588 47.181 22.776C47.0259 22.3932 46.9478 21.9836 46.9512 21.5706C46.9542 21.1579 47.0384 20.7499 47.1991 20.3697C47.3598 19.9896 47.5938 19.6448 47.8877 19.3551C48.1817 19.0654 48.5298 18.8364 48.9122 18.6813C49.2946 18.5261 49.7039 18.4478 50.1166 18.4508C50.5293 18.4538 50.9373 18.538 51.3175 18.6987C51.6976 18.8594 52.0424 19.0934 52.3321 19.3873C52.6218 19.6813 52.8508 20.0294 53.0059 20.4118C53.1611 20.7942 53.2394 21.2035 53.2364 21.6162C53.2238 23.3544 51.8079 24.7501 50.0725 24.7375Z" fill="#CCCCCC"/>
<path d="M35.9108 44.2325C40.748 44.2675 44.6977 40.3746 44.7327 35.5374C44.7678 30.7002 40.8749 26.7505 36.0377 26.7154C31.2005 26.6804 27.2507 30.5733 27.2157 35.4105C27.1806 40.2477 31.0736 44.1974 35.9108 44.2325Z" fill="#CCCCCC"/>
</svg>
