<svg width="72" height="72" viewBox="0 0 72 72" fill="none" xmlns="http://www.w3.org/2000/svg">
<path d="M18.842 59.194C22.3536 59.2195 25.2208 56.3934 25.2463 52.8819C25.2717 49.3704 22.4457 46.5031 18.9342 46.4777C15.4226 46.4523 12.5554 49.2783 12.5299 52.7898C12.5045 56.3013 15.3305 59.1686 18.842 59.194Z" fill="#CCCCCC"/>
<path d="M12.8126 13.7656L12.7528 22.0196C33.2565 22.1681 49.7606 38.9131 49.6121 59.4167L57.866 59.4765C58.0475 34.423 37.8661 13.9471 12.8126 13.7656ZM12.693 30.2735L12.6332 38.5275C24.0079 38.6099 33.1866 47.9224 33.1042 59.2971L41.3581 59.3569C41.4737 43.4032 28.6468 30.3891 12.693 30.2735Z" fill="#CCCCCC"/>
</svg>
