<svg width="53" height="60" viewBox="0 0 53 60" fill="none" xmlns="http://www.w3.org/2000/svg">
<path d="M13.6475 50.0001C16.3063 50.0001 18.4617 47.56 18.4617 44.5501C18.4617 41.5401 16.3063 39.1001 13.6475 39.1001C10.9887 39.1001 8.83333 41.5401 8.83333 44.5501C8.83333 47.56 10.9887 50.0001 13.6475 50.0001Z" fill="#CCCCCC"/>
<path d="M8.83333 11.0999V18.1749C24.3579 18.1749 36.9454 32.4249 36.9454 49.9999H43.195C43.195 28.5249 27.8029 11.0999 8.83333 11.0999V11.0999ZM8.83333 25.2499V32.3249C17.4458 32.3249 24.4462 40.2499 24.4462 49.9999H30.6958C30.6958 36.3249 20.9129 25.2499 8.83333 25.2499V25.2499Z" fill="#CCCCCC"/>
</svg>
